<svg width="48" height="50" viewBox="0 0 48 50" fill="none" xmlns="http://www.w3.org/2000/svg">
<path d="M46.7608 22.3563L42.5547 18.1502V5.37107C42.5547 4.83171 42.1175 4.39451 41.5781 4.39451H28.799L24.6905 0.286011C24.3092 -0.0953369 23.6908 -0.0953369 23.3094 0.286011L19.2009 4.39451H6.42188C5.88252 4.39451 5.44531 4.83171 5.44531 5.37107V18.1501L1.23916 22.3562C1.05605 22.5394 0.953125 22.7879 0.953125 23.0469V49.0234C0.953125 49.5628 1.39033 50 1.92969 50H19.6055C20.1448 50 20.582 49.5628 20.582 49.0234C20.582 48.4841 20.1448 48.0468 19.6055 48.0468H4.2874L24 28.3342L43.7127 48.0468H28.3945C27.8552 48.0468 27.418 48.4841 27.418 49.0234C27.418 49.5628 27.8552 50 28.3945 50H46.0703C46.6097 50 47.0469 49.5628 47.0469 49.0234V23.0469C47.0469 22.7879 46.9439 22.5394 46.7608 22.3563ZM45.0938 25.4046V46.6658L34.4632 36.0351L45.0938 25.4046ZM44.6893 23.0469L42.5547 25.1814V20.9124L44.6893 23.0469ZM24 2.35759L26.0369 4.39451H21.9631L24 2.35759ZM2.90625 25.4046L13.5368 36.0351L2.90625 46.6658V25.4046ZM5.44531 25.1814L3.31074 23.0469L5.44531 20.9124V25.1814ZM23.3095 26.2626L14.918 34.6541L7.39844 27.1345V6.34763H40.6016V27.1344L33.082 34.654L24.6905 26.2625C24.3092 25.8812 23.6908 25.8812 23.3095 26.2626Z" fill="white"/>
<path d="M24 48.0469C23.7432 48.0469 23.4912 48.1514 23.3096 48.333C23.1279 48.5146 23.0234 48.7666 23.0234 49.0234C23.0234 49.2803 23.1279 49.5322 23.3096 49.7139C23.4912 49.8955 23.7432 50 24 50C24.2568 50 24.5088 49.8955 24.6904 49.7139C24.8721 49.5322 24.9766 49.2803 24.9766 49.0234C24.9766 48.7666 24.8721 48.5146 24.6904 48.333C24.5088 48.1514 24.2568 48.0469 24 48.0469Z" fill="white"/>
<path d="M15.1782 11.8164H32.8215C33.3608 11.8164 33.798 11.3792 33.798 10.8398C33.798 10.3005 33.3608 9.86328 32.8215 9.86328H15.1782C14.6389 9.86328 14.2017 10.3005 14.2017 10.8398C14.2017 11.3792 14.6389 11.8164 15.1782 11.8164Z" fill="white"/>
<path d="M33.798 16.3086C33.798 15.7692 33.3608 15.332 32.8215 15.332H15.1782C14.6389 15.332 14.2017 15.7692 14.2017 16.3086C14.2017 16.8479 14.6389 17.2852 15.1782 17.2852H32.8215C33.3608 17.2852 33.798 16.8479 33.798 16.3086Z" fill="white"/>
<path d="M29.1758 20.8008H18.8242C18.2849 20.8008 17.8477 21.238 17.8477 21.7773C17.8477 22.3167 18.2849 22.7539 18.8242 22.7539H29.1758C29.7151 22.7539 30.1523 22.3167 30.1523 21.7773C30.1523 21.238 29.7151 20.8008 29.1758 20.8008Z" fill="white"/>
</svg>
