<svg width="50" height="50" viewBox="0 0 50 50" fill="none" xmlns="http://www.w3.org/2000/svg">
<g clip-path="url(#clip0_69_34)">
<path d="M46.6667 20.4167H45.8333C45.8279 19.3263 45.1163 18.3652 44.075 18.0417C43.1118 8.22853 34.8603 0.747314 25 0.747314C15.1397 0.747314 6.8882 8.22853 5.925 18.0417C4.88366 18.3652 4.1721 19.3263 4.16667 20.4167H3.33333C1.49238 20.4167 0 21.9091 0 23.75V30.4167C0 32.2576 1.49238 33.75 3.33333 33.75H4.16667C4.16667 35.1307 5.28595 36.25 6.66667 36.25H7.5V39.5834C7.5 43.7255 10.8579 47.0834 15 47.0834H17.6167C17.9957 48.5512 19.3174 49.5784 20.8333 49.5834H29.1667C31.0076 49.5834 32.5 48.091 32.5 46.25C32.5 44.4091 31.0076 42.9167 29.1667 42.9167H20.8333C19.3174 42.9216 17.9957 43.9489 17.6167 45.4167H15C11.7783 45.4167 9.16667 42.805 9.16667 39.5834V36.25H10C11.3807 36.25 12.5 35.1307 12.5 33.75V20.4167C12.4989 19.3973 11.879 18.4806 10.9333 18.1C11.7842 10.9766 17.8259 5.61363 25 5.61363C32.1741 5.61363 38.2158 10.9766 39.0667 18.1C38.121 18.4806 37.501 19.3973 37.5 20.4167V33.75C37.5 35.1307 38.6193 36.25 40 36.25H43.3333C44.714 36.25 45.8333 35.1307 45.8333 33.75H46.6667C48.5076 33.75 50 32.2576 50 30.4167V23.75C50 21.9091 48.5076 20.4167 46.6667 20.4167ZM20.8333 44.5834H29.1667C30.0871 44.5834 30.8333 45.3295 30.8333 46.25C30.8333 47.1705 30.0871 47.9167 29.1667 47.9167H20.8333C19.9129 47.9167 19.1667 47.1705 19.1667 46.25C19.1667 45.3295 19.9129 44.5834 20.8333 44.5834ZM3.33333 32.0834C2.41286 32.0834 1.66667 31.3372 1.66667 30.4167V23.75C1.66667 22.8295 2.41286 22.0834 3.33333 22.0834H4.16667V32.0834H3.33333ZM10.8333 33.75C10.8333 34.2103 10.4602 34.5834 10 34.5834H6.66667C6.20643 34.5834 5.83333 34.2103 5.83333 33.75V20.4167C5.83333 19.9564 6.20643 19.5834 6.66667 19.5834H10C10.4602 19.5834 10.8333 19.9564 10.8333 20.4167V33.75ZM25 3.75002C16.9085 3.76043 10.1267 9.8701 9.275 17.9167H7.60833C8.5985 9.05923 16.0874 2.36089 25 2.36089C33.9126 2.36089 41.4015 9.05923 42.3917 17.9167H40.725C39.8733 9.8701 33.0915 3.76043 25 3.75002ZM44.1667 33.75C44.1667 34.2103 43.7936 34.5834 43.3333 34.5834H40C39.5398 34.5834 39.1667 34.2103 39.1667 33.75V20.4167C39.1667 19.9564 39.5398 19.5834 40 19.5834H43.3333C43.7936 19.5834 44.1667 19.9564 44.1667 20.4167V33.75ZM48.3333 30.4167C48.3333 31.3372 47.5871 32.0834 46.6667 32.0834H45.8333V22.0834H46.6667C47.5871 22.0834 48.3333 22.8295 48.3333 23.75V30.4167Z" fill="white"/>
</g>
<defs>
<clipPath id="clip0_69_34">
<rect width="50" height="50" fill="white"/>
</clipPath>
</defs>
</svg>
